<svg xmlns="http://www.w3.org/2000/svg" version="1.1" xmlns:xlink="http://www.w3.org/1999/xlink" xmlns:svgjs="http://svgjs.dev/svgjs" width="1000" height="73" viewBox="0 0 1000 73"><g transform="matrix(1,0,0,1,-0.6060605073807324,0.11800104590226823)"><svg viewBox="0 0 396 29" data-background-color="#ffffff" preserveAspectRatio="xMidYMid meet" height="73" width="1000" xmlns="http://www.w3.org/2000/svg" xmlns:xlink="http://www.w3.org/1999/xlink"><g id="tight-bounds" transform="matrix(1,0,0,1,0.2400000390773016,-0.04687712782418885)"><svg viewBox="0 0 395.52 29.093754255648403" height="29.093754255648403" width="395.52"><g><svg viewBox="0 0 395.52 29.093754255648403" height="29.093754255648403" width="395.52"><g><svg viewBox="0 0 395.52 29.093754255648403" height="29.093754255648403" width="395.52"><g><svg viewBox="0 0 395.52 29.093754255648403" height="29.093754255648403" width="395.52"><g><svg viewBox="0 0 395.52 29.093754255648403" height="29.093754255648403" width="395.52"><g transform="matrix(1,0,0,1,0,0)"><svg width="395.52" viewBox="1.6500000953674316 -35 482.6300354003906 35.650001525878906" height="29.093754255648403" data-palette-color="#152232"><g class="undefined-text-0" data-fill-palette-color="primary" id="text-0"><path d="M44.45-27.95L38.9-27.95 38.9-6.35 44.45-6.35 44.45 0 25.2 0 25.2-6.35 30.75-6.35 30.75-14.5 15.4-14.5 15.4-6.35 20.9-6.35 20.9 0 1.65 0 1.65-6.35 7.25-6.35 7.25-27.95 1.65-27.95 1.65-34.3 20.9-34.3 20.9-27.95 15.4-27.95 15.4-20.45 30.75-20.45 30.75-27.95 25.2-27.95 25.2-34.3 44.45-34.3 44.45-27.95ZM90.05-34.3L90.05-27.95 84.5-27.95 84.5-13.6Q84.5-9.5 82.37-6.25 80.25-3 76.52-1.18 72.8 0.65 68.25 0.65L68.25 0.65Q63.55 0.65 59.85-1.18 56.15-3 54.1-6.23 52.05-9.45 52.05-13.6L52.05-13.6 52.05-27.95 46.45-27.95 46.45-34.3 65.05-34.3 65.05-27.95 60.2-27.95 60.15-14.1Q60.15-10.45 62.45-8.18 64.75-5.9 68.25-5.9L68.25-5.9Q70.55-5.9 72.42-6.95 74.3-8 75.35-9.88 76.4-11.75 76.4-14.2L76.4-14.2 76.3-27.95 71.4-27.95 71.4-34.3 90.05-34.3ZM144.5-27.95L138.9-27.95 138.9-6.35 144.5-6.35 144.5 0 125.75 0 125.75-6.35 131-6.35 131-13.8Q131-17.45 132.15-23.9L132.15-23.9 120.3 0.05 115.85 0.05 104.25-23.35Q105.15-17.05 105.15-13.8L105.15-13.8 105.15-6.35 110.4-6.35 110.4 0 92.05 0 92.05-6.35 97.65-6.35 97.65-27.95 92.05-27.95 92.05-34.3 106.5-34.3 118.35-10.65 130-34.3 144.5-34.3 144.5-27.95ZM182.99-6.35L187.14-6.35 187.14 0 169.64 0 169.64-6.35 174.69-6.35 172.79-11.35 160.24-11.35 158.39-6.35 163.94-6.35 163.94 0 146.79 0 146.79-6.35 150.84-6.35 160.04-28 156.49-28 156.49-34.3 177.24-34.3 177.24-28 173.74-28 182.99-6.35ZM162.34-16.95L170.69-16.95 166.54-28 166.49-28 162.34-16.95ZM233.94-34.3L233.94-27.95 228.64-27.95 228.64 0.3 224.29 0.35 202.64-23.5 202.64-6.35 208.24-6.35 208.24 0 189.44 0 189.44-6.35 195.04-6.35 195.04-27.95 189.44-27.95 189.44-34.3 202.64-34.3 221.24-13.25 221.24-27.95 215.64-27.95 215.64-34.3 233.94-34.3Z" fill="#152232" data-fill-palette-color="primary"></path><path d="M254.34 0.65Q249.04 0.65 244.74-1.73 240.44-4.1 238.02-8.18 235.59-12.25 235.59-17.15L235.59-17.15Q235.59-22.05 238.02-26.15 240.44-30.25 244.74-32.63 249.04-35 254.34-35L254.34-35Q259.59-35 263.87-32.63 268.14-30.25 270.57-26.15 272.99-22.05 272.99-17.15L272.99-17.15Q272.99-12.25 270.57-8.18 268.14-4.1 263.87-1.73 259.59 0.65 254.34 0.65L254.34 0.65ZM254.34-5.9Q257.44-5.9 259.77-7.43 262.09-8.95 263.32-11.53 264.54-14.1 264.54-17.15L264.54-17.15Q264.54-20.25 263.32-22.83 262.09-25.4 259.77-26.93 257.44-28.45 254.34-28.45L254.34-28.45Q251.14-28.45 248.82-26.9 246.49-25.35 245.27-22.78 244.04-20.2 244.04-17.15L244.04-17.15Q244.04-14.05 245.27-11.48 246.49-8.9 248.82-7.4 251.14-5.9 254.34-5.9L254.34-5.9ZM276.29-34.3L309.99-34.3 309.99-21.1 302.94-21.1 302.94-27.95 289.84-27.95 289.84-19.55 294.24-19.55 294.24-23.5 300.14-23.5 300.14-9.85 294.24-9.85 294.24-13.85 289.84-13.85 289.84-6.35 295.84-6.35 295.84 0 276.29 0 276.29-6.35 281.89-6.35 281.89-27.95 276.29-27.95 276.29-34.3Z" fill="#5ebc67" data-fill-palette-color="secondary"></path><path d="M330.99-27.95L325.34-27.95 325.34-6.35 330.99-6.35 330.99 0 311.64 0 311.64-6.35 317.24-6.35 317.24-27.95 311.64-27.95 311.64-34.3 330.99-34.3 330.99-27.95ZM378.79-34.3L378.79-27.95 373.49-27.95 373.49 0.3 369.14 0.35 347.49-23.5 347.49-6.35 353.09-6.35 353.09 0 334.29 0 334.29-6.35 339.89-6.35 339.89-27.95 334.29-27.95 334.29-34.3 347.49-34.3 366.09-13.25 366.09-27.95 360.49-27.95 360.49-34.3 378.79-34.3ZM398.59-34.3Q403.74-34.3 408.39-32.5 413.04-30.7 416.01-26.85 418.99-23 418.99-17.15L418.99-17.15Q418.99-11.35 416.01-7.48 413.04-3.6 408.36-1.8 403.69 0 398.59 0L398.59 0 381.44 0 381.44-6.35 387.04-6.35 387.04-27.95 381.44-27.95 381.44-34.3 398.59-34.3ZM397.69-6.35Q402.94-6.35 406.74-8.6 410.54-10.85 410.54-17.15L410.54-17.15Q410.54-27.95 397.69-27.95L397.69-27.95 395.14-27.95 395.14-6.35 397.69-6.35ZM441.63-27.95L435.98-27.95 435.98-6.35 441.63-6.35 441.63 0 422.28 0 422.28-6.35 427.88-6.35 427.88-27.95 422.28-27.95 422.28-34.3 441.63-34.3 441.63-27.95ZM480.13-6.35L484.28-6.35 484.28 0 466.78 0 466.78-6.35 471.83-6.35 469.93-11.35 457.38-11.35 455.53-6.35 461.08-6.35 461.08 0 443.93 0 443.93-6.35 447.98-6.35 457.18-28 453.63-28 453.63-34.3 474.38-34.3 474.38-28 470.88-28 480.13-6.35ZM459.48-16.95L467.83-16.95 463.68-28 463.63-28 459.48-16.95Z" fill="#152232" data-fill-palette-color="primary"></path></g></svg></g></svg></g></svg></g></svg></g><g></g></svg></g><defs></defs></svg><rect width="395.52" height="29.093754255648403" fill="none" stroke="none" visibility="hidden"></rect></g></svg></g></svg>